<svg width="210" height="210" viewBox="0 0 210 210" fill="none" xmlns="http://www.w3.org/2000/svg">
<rect width="210" height="210" rx="10" fill="#166AF5"/>
<path d="M32.5 179.5H102C103.105 179.5 104 178.605 104 177.5V156.5C104 155.395 103.105 154.5 102 154.5H60.5C59.3954 154.5 58.5 153.605 58.5 152.5V72.4465C58.5 70.5849 60.82 69.733 62.0247 71.1521L153.401 178.794C153.781 179.242 154.338 179.5 154.926 179.5H175.5C176.605 179.5 177.5 178.605 177.5 177.5V33C177.5 31.8954 176.605 31 175.5 31H152.5C151.395 31 150.5 31.8954 150.5 33V126.59C150.5 128.447 148.189 129.302 146.981 127.891L64.5987 31.699C64.2187 31.2554 63.6638 31 63.0796 31H32.5C31.3954 31 30.5 31.8954 30.5 33V177.5C30.5 178.605 31.3954 179.5 32.5 179.5Z" fill="white"/>
</svg>
